<?xml version="1.0" encoding="UTF-8" standalone="no"?>
<!-- Generator: Adobe Illustrator 25.0.0, SVG Export Plug-In . SVG Version: 6.00 Build 0)  -->

<svg
   version="1.1"
   id="图层_1"
   x="0px"
   y="0px"
   viewBox="0 0 170 152"
   xml:space="preserve"
   sodipodi:docname="logo.svg"
   width="170"
   height="152"
   inkscape:export-filename="C:\Users\mingt\Pictures\ControlCenter4\Scan\CCI2023032422232232.png"
   inkscape:export-xdpi="600.09528"
   inkscape:export-ydpi="600.09528"
   inkscape:version="1.1.2 (b8e25be833, 2022-02-05)"
   xmlns:inkscape="http://www.inkscape.org/namespaces/inkscape"
   xmlns:sodipodi="http://sodipodi.sourceforge.net/DTD/sodipodi-0.dtd"
   xmlns="http://www.w3.org/2000/svg"
   xmlns:svg="http://www.w3.org/2000/svg"><defs
   id="defs35" /><sodipodi:namedview
   id="namedview33"
   pagecolor="#ffffff"
   bordercolor="#666666"
   borderopacity="1.0"
   inkscape:pageshadow="2"
   inkscape:pageopacity="0.0"
   inkscape:pagecheckerboard="0"
   showgrid="false"
   inkscape:zoom="3.3322407"
   inkscape:cx="112.68694"
   inkscape:cy="100.683"
   inkscape:window-width="1728"
   inkscape:window-height="1010"
   inkscape:window-x="-6"
   inkscape:window-y="-6"
   inkscape:window-maximized="1"
   inkscape:current-layer="g30"
   fit-margin-top="0"
   fit-margin-left="0"
   fit-margin-right="0"
   fit-margin-bottom="0"
   width="164.57565px" />
<style
   type="text/css"
   id="style2">
	.st0{fill:#FFFFFF;}
</style>
<g
   id="g30"
   transform="translate(-857.9623,-457.75025)">
	
	
	
	
	
	
	
	
	
	
	
	
	
<path
   d="m 912.18917,573.40828 c -0.349,0.63015 -0.69801,1.2603 -1.04701,1.90014 -0.31993,0.57199 -0.57198,1.18275 -0.96946,1.68687 -0.39748,0.51381 -0.88221,0.0291 -1.21183,-0.16481 -0.77557,-0.43626 -0.73679,-0.87252 -0.11633,-1.9874 0.31022,-0.54289 0.41686,-1.21182 0.79495,-1.70625 0.63015,-0.83373 0.7174,-1.84197 1.05672,-2.76296 0.32961,-0.88221 0.65923,-1.75472 0.96946,-2.63693 0.0582,-0.1745 -0.01,-0.38778 -0.0194,-0.60107 -0.82405,0.79496 -1.63839,1.49297 -2.35579,2.27824 -1.12458,1.22152 -2.17159,2.53029 -3.30586,3.75181 -0.59137,0.63015 -1.2603,1.22152 -2.29762,0.79495 -0.13573,-0.0582 -0.57198,0.25206 -0.66893,0.47504 -0.37809,0.8919 -0.70771,1.81289 -0.98885,2.74357 -0.31992,1.03733 -0.52351,2.11343 -0.85312,3.14105 -0.31023,0.99855 -0.70771,1.96801 -1.05672,2.94716 -0.0873,0.23267 -0.14542,0.47504 -0.21328,0.7174 -0.0582,0.1842 -0.0873,0.49443 -0.18419,0.51382 -0.28115,0.0582 -0.60107,0.0679 -0.86282,-0.0291 -0.38779,-0.15511 -0.7271,-0.41686 -1.10519,-0.63015 0.38778,-1.26029 0.9016,-2.53998 1.15366,-3.87784 0.13572,-0.68831 0.5429,-1.38632 0.24236,-2.16189 -0.0873,-0.21328 -0.0291,-0.50412 0.0194,-0.74649 0.16481,-0.93068 -0.10664,-1.7935 -0.31992,-2.67571 -0.0291,-0.10664 -0.20359,-0.25206 -0.31023,-0.25206 -0.26175,0.01 -0.57198,0.0194 -0.78526,0.15512 -0.75618,0.48473 -1.51236,0.98885 -2.21037,1.55113 -0.7174,0.57198 -1.40572,1.19244 -2.03587,1.85167 -0.63014,0.65923 -1.22151,1.36694 -1.7838,2.08434 -0.66893,0.86282 -1.28938,1.77411 -1.94862,2.64663 -0.21328,0.28114 -0.46534,0.52351 -0.73679,0.75618 -0.63984,0.55259 -1.17304,-0.15512 -1.77411,-0.16481 0.0194,-0.22298 -0.0485,-0.48473 0.0582,-0.64954 0.40717,-0.63015 0.88221,-1.21183 1.29908,-1.84197 0.7077,-1.07611 1.41541,-2.15221 2.08433,-3.2477 1.10519,-1.81289 2.19099,-3.65486 3.28648,-5.47745 0.42656,-0.72709 0.90159,-1.4348 1.26029,-2.19098 0.49443,-1.04701 0.96946,-2.11342 1.33786,-3.20891 0.38778,-1.13427 0.66893,-2.30732 0.95007,-3.47067 0.0388,-0.16481 -0.11634,-0.43625 -0.26175,-0.55259 -0.11634,-0.0969 -0.41687,-0.14542 -0.5429,-0.0679 -0.99855,0.61076 -1.9874,1.22152 -2.8696,2.01648 -0.61076,0.54289 -1.32817,1.0761 -2.08434,1.31846 -0.45565,0.14542 -1.09549,-0.27145 -1.64809,-0.46534 -0.0485,-0.0194 -0.0679,-0.27145 -0.01,-0.34901 0.44595,-0.60106 0.95976,-1.15365 1.36694,-1.7838 0.48473,-0.73679 0.88221,-1.52205 1.33785,-2.27823 0.42657,-0.70771 0.89191,-1.38633 1.30877,-2.09404 0.11634,-0.19389 0.11634,-0.44595 0.21329,-0.64954 0.3587,-0.73679 0.72709,-1.46388 1.10518,-2.19098 0.0872,-0.1648 0.22298,-0.31992 0.29084,-0.49442 0.29084,-0.7271 0.5429,-1.47358 0.84343,-2.20068 0.56229,-1.35724 1.13427,-2.71448 1.73533,-4.06203 0.48473,-1.09549 0.99855,-2.18129 1.51236,-3.26709 0.55259,-1.16335 0.7271,-2.42365 0.94038,-3.67425 0.0969,-0.58168 0.14542,-1.16335 0.22297,-1.74503 1.0858,0.3684 1.6287,1.24091 1.40572,2.49151 -0.20359,1.11488 -0.44595,2.22976 -0.79496,3.29617 -0.31992,0.97915 -0.7077,1.95831 -1.35724,2.79205 -0.10664,0.14541 -0.11634,0.3587 -0.1842,0.54289 -0.25206,0.69801 -0.48473,1.41541 -0.78526,2.09404 -0.20359,0.46534 -0.52351,0.87251 -0.74649,1.32816 -0.31992,0.65923 -0.59137,1.34755 -0.90159,2.01647 -0.3684,0.82405 -0.73679,1.64809 -1.13427,2.45274 -0.5429,1.09549 -1.12458,2.17159 -1.69656,3.24769 -0.0679,0.12603 -0.22297,0.21328 -0.31023,0.32962 -0.19389,0.24236 -0.37809,0.48473 -0.57198,0.73679 0.0485,0.0679 0.10664,0.14542 0.15512,0.21328 0.37809,-0.1745 0.74648,-0.38779 1.13426,-0.52351 0.59138,-0.21328 1.19244,-0.46534 1.8129,-0.5332 0.95007,-0.11634 2.1522,0.79495 2.27823,1.619 0.0194,0.14541 -0.0388,0.31022 -0.0776,0.46534 -0.0194,0.0872 -0.0969,0.19389 -0.0776,0.25206 0.53321,1.27968 -0.15511,2.39456 -0.58167,3.48036 -0.63985,1.6093 -1.46389,3.15074 -2.25884,4.69219 -0.43626,0.83373 -0.98885,1.59961 -1.48328,2.40426 -0.0776,0.12603 -0.12603,0.26175 -0.19389,0.39748 0.0291,0.0485 0.0582,0.0872 0.0873,0.13572 0.57198,-0.23267 1.15366,-0.43626 1.69656,-0.70771 0.82404,-0.41686 1.56083,-0.29083 2.42365,0.01 0.93068,0.32962 1.34755,0.94038 1.67716,1.74503 0.0388,0.10664 0.0969,0.20358 0.16481,0.31022 0.0194,0.0291 0.0679,0.0388 0.1745,0.0969 0.3587,-0.56229 0.78527,-1.09549 1.06641,-1.70625 0.81435,-1.75472 1.56083,-3.53853 2.36548,-5.30295 0.48473,-1.0664 1.15366,-2.05525 1.50267,-3.16044 0.3587,-1.15365 0.93068,-2.1425 1.59961,-3.10227 0.0775,-0.10664 -0.0194,-0.33931 -0.0388,-0.50412 -0.14542,0.0485 -0.3587,0.0388 -0.43626,0.13573 -0.96946,1.18274 -2.23945,1.82258 -3.72273,1.89044 -0.49442,0.0194 -1.00824,-0.37809 -1.50266,-0.62045 -0.0582,-0.0291 -0.0679,-0.31023 0,-0.39748 0.48473,-0.65923 1.00824,-1.29908 1.51236,-1.94862 0.63984,-0.83373 1.22152,-1.70625 1.91953,-2.49151 0.95007,-1.0761 1.13427,-2.53029 1.92922,-3.66456 0.70771,-1.01793 1.45419,-2.01648 2.23946,-2.97624 0.14542,-0.1745 0.57198,-0.25206 0.81434,-0.1842 0.27145,0.0776 0.46535,0.34901 0.10664,0.64954 -1.01793,0.84343 -1.68686,1.91953 -2.04556,3.19922 -0.0582,0.21328 -0.23267,0.38778 -0.349,0.58167 -0.76588,1.22152 -1.54144,2.44304 -2.27823,3.67426 -0.0872,0.14542 0.01,0.39748 0.0194,0.60106 0.19389,-0.0194 0.46534,0.0388 0.58167,-0.0679 0.44595,-0.39748 0.86282,-0.84343 1.26999,-1.27969 0.67863,-0.73679 1.33786,-1.49296 2.00679,-2.22975 0.12603,-0.14542 0.28114,-0.27145 0.42656,-0.38779 1.35724,-1.0761 1.968,-2.56907 2.26854,-4.20746 0.24236,-1.27968 0.40717,-2.57876 0.63984,-3.86814 0.1745,-0.95007 0.46534,-1.89045 0.57198,-2.85022 0.10664,-0.99854 0.0776,-2.01647 0.0388,-3.02471 -0.01,-0.31023 -0.23267,-0.62046 -0.3587,-0.93068 0.0485,-0.0485 0.0969,-0.10664 0.14542,-0.15512 0.28114,0.1842 0.62045,0.32962 0.84343,0.56229 0.64954,0.66893 0.77557,1.56083 0.75618,2.42365 -0.0388,1.60931 -0.0873,3.238 -0.31023,4.82791 -0.11633,0.82404 0,1.64809 -0.1842,2.45274 -0.0291,0.11633 0.0485,0.349 0.13573,0.38778 0.10664,0.0485 0.29084,-0.0388 0.41687,-0.10664 0.95007,-0.56229 1.89044,-1.13427 2.82113,-1.72564 0.36839,-0.23267 0.67862,-0.58167 1.0664,-0.74648 0.63985,-0.27145 1.58992,-0.0485 1.95831,0.5429 0.0969,0.1648 0.13573,0.49442 0.0388,0.63984 -0.50412,0.73679 -1.0858,1.41541 -1.58022,2.1522 -0.34901,0.52351 -0.59137,1.11488 -0.91129,1.64808 -0.20359,0.33931 -0.51382,0.62046 -0.7271,0.95977 -0.64954,1.04702 -1.23121,2.14251 -1.90983,3.17983 -0.63015,0.97915 -1.35725,1.90983 -2.01648,2.8793 -0.27145,0.39747 -0.49443,0.84343 -0.7271,1.26999 -0.33931,0.61076 -0.66892,1.22152 -0.99854,1.83228 0.48473,0.1745 0.92099,0.36839 1.37663,0.50412 0.58168,0.1745 0.81435,0.64954 0.81435,1.14396 0,0.62045 -0.11634,1.2603 -0.31992,1.85167 -0.31992,0.94038 -0.74649,1.84197 -1.12458,2.76296 -0.12603,0.31992 -0.0485,0.56229 0.31993,0.67862 0.98884,0.32962 1.65777,0.94038 1.84197,2.02618 0.0485,0.31022 0.28114,0.58167 0.49442,1.01793 0.1842,-0.26176 0.32962,-0.41687 0.41687,-0.60107 0.57198,-1.2603 1.15366,-2.52059 1.70625,-3.78089 0.34901,-0.80465 0.67862,-1.619 0.99855,-2.44304 0.0388,-0.10664 0.0485,-0.31023 -0.01,-0.3684 -0.31023,-0.29083 -0.24236,-0.61076 -0.0873,-0.90159 0.61076,-1.22152 1.2603,-2.41396 1.86136,-3.64518 0.12603,-0.26175 0.15512,-0.64953 0.0582,-0.92098 -0.22297,-0.66893 -0.21328,-0.80465 0.3684,-1.18274 0.0969,-0.0582 0.19389,-0.14542 0.24236,-0.24237 0.58168,-1.24091 1.28938,-2.42365 1.58992,-3.79059 0.12603,-0.58167 0.5235,-1.11488 0.91129,-1.6093 -0.27145,0.78526 -0.57198,1.56083 -0.82404,2.34609 -0.25206,0.78526 -0.47504,1.57053 -0.70771,2.36548 0.0485,0.0388 0.10664,0.0776 0.15512,0.10664 0.18419,-0.1648 0.40717,-0.30053 0.54289,-0.50411 0.24237,-0.3587 0.46534,-0.74649 0.64954,-1.14397 0.47504,-1.05671 0.95007,-2.12312 1.36694,-3.19922 0.31992,-0.81434 0.5332,-1.66747 0.84343,-2.48181 0.26176,-0.67863 0.60107,-1.31847 0.91129,-1.96801 0.0291,-0.0679 0.12603,-0.14542 0.10664,-0.19389 -0.3587,-0.84343 0.31993,-1.39602 0.5429,-2.08434 0.38779,-1.13427 0.7271,-2.28793 1.0858,-3.43189 -0.0969,-0.0388 -0.19389,-0.0776 -0.29084,-0.11633 -0.22298,0.44595 -0.45565,0.8919 -0.75618,1.48327 -0.0291,-0.30053 -0.11633,-0.49443 -0.0485,-0.62046 0.77557,-1.56083 1.58991,-3.10227 2.36548,-4.67279 0.25206,-0.51382 0.39748,-1.0761 0.59137,-1.619 0.26176,-0.74649 0.52351,-1.48328 0.76587,-2.22976 0.11634,-0.33931 0.21329,-0.69801 0.26176,-1.04702 0.0582,-0.47503 0.27145,-0.66893 0.7174,-0.50412 0.37809,0.14542 0.77557,0.30054 1.0761,0.5526 0.15511,0.13572 0.25206,0.5332 0.1745,0.72709 -0.32961,0.79496 -0.74648,1.54144 -1.10518,2.32671 -0.34901,0.75617 -0.68832,1.53174 -0.96946,2.317 -0.24237,0.68832 -0.39748,1.39603 -0.61076,2.10373 -0.1745,0.60107 -0.3684,1.20213 -0.5429,1.8032 -0.097,0.32962 -0.12603,0.66893 -0.24236,0.98885 -0.37809,1.02763 -0.79496,2.04556 -1.17305,3.07319 -0.31023,0.83373 -0.58168,1.68686 -0.92099,2.5109 -0.29084,0.70771 -0.64954,1.39602 -0.95976,2.09403 -0.0485,0.0969 -0.0291,0.26176 0.0291,0.3587 0.0388,0.0679 0.21328,0.10665 0.29084,0.0776 0.1745,-0.0679 0.41687,-0.15511 0.47503,-0.30053 0.31992,-0.7174 0.93068,-1.0858 1.56083,-1.45419 0.24237,-0.14542 0.42657,-0.37809 0.63985,-0.57198 0.3587,-0.33931 0.7077,-0.67863 1.0664,-1.00824 0.69802,-0.63985 1.38633,-1.28938 2.10373,-1.90984 0.40718,-0.349 0.84343,-0.66893 1.29908,-0.94037 0.16481,-0.0969 0.42656,-0.0969 0.63015,-0.0485 0.33931,0.0872 0.66893,0.23267 0.98885,0.37809 0.1842,0.0873 0.45564,0.22298 0.48473,0.3684 0.0291,0.1745 -0.10664,0.48473 -0.26176,0.57198 -1.17304,0.68831 -2.38487,1.30877 -3.55792,1.99709 -0.45564,0.27144 -0.85312,0.64953 -1.2506,1.01793 -0.49442,0.45565 -0.95976,0.94038 -1.4348,1.42511 -0.11634,0.11633 -0.1745,0.30053 -0.28114,0.42656 -0.11634,0.13572 -0.26176,0.23267 -0.40718,0.349 -0.12603,0.10664 -0.33931,0.17451 -0.37809,0.30054 -0.10664,0.3587 -0.31022,0.54289 -0.66892,0.63984 -0.10664,0.0291 -0.23267,0.1745 -0.25206,0.29084 -0.0776,0.5429 -0.34901,0.84343 -0.97916,0.73679 0.0388,0.43626 0,0.74648 -0.46534,0.88221 -0.19389,0.0582 -0.31992,0.36839 -0.47503,0.57198 -0.43626,0.59137 -0.86282,1.18274 -1.27969,1.78381 -0.11634,0.1745 -0.21328,0.36839 -0.30053,0.55259 -0.38779,0.78526 -0.80466,1.55113 -1.12458,2.35579 -0.10664,0.28114 -0.0969,0.79495 0.0969,0.97915 1.13427,1.13427 2.3267,2.20068 3.49975,3.27678 0.0582,0.0485 0.13572,0.0776 0.33931,0.19389 0.11634,-0.70771 0.27145,-1.33786 0.30053,-1.98739 0.0873,-1.59961 0.15512,-3.18953 0.14542,-4.78914 -0.01,-0.69801 0,-1.34755 0.45565,-1.88075 0.16481,-0.19389 0.51381,-0.23267 0.77557,-0.33931 0.0969,0.24236 0.28114,0.49442 0.28114,0.73679 0.0194,0.88221 0,1.76442 -0.0388,2.63693 -0.0194,0.43626 -0.15511,0.86282 -0.15511,1.29908 0,1.41541 0.0291,2.83082 0.0485,4.24623 0,0.29084 0.0969,0.61076 0,0.85313 -0.23267,0.57198 0,0.97915 0.3587,1.35724 0.68832,0.73679 1.35725,1.50266 2.08434,2.20068 0.31992,0.31022 0.78526,0.47503 1.15366,0.74648 0.56228,0.40717 1.0761,0.87251 1.64808,1.26999 0.82404,0.56229 1.65778,1.11488 2.5109,1.619 1.00824,0.60107 2.01648,1.19244 3.0635,1.71595 0.63015,0.31992 1.33785,0.48473 1.99708,0.75618 0.31023,0.12603 0.58168,0.36839 0.9016,0.48473 1.57053,0.5332 3.19922,0.91129 4.70188,1.58991 1.77412,0.79496 3.70334,0.82404 5.52593,1.34755 1.54144,0.44595 3.14105,0.7174 4.73096,0.99854 1.6287,0.29084 3.27678,0.50412 4.91517,0.75618 0.82404,0.12603 1.64808,0.26176 2.47212,0.39748 0,0.0776 0.01,0.15512 0.01,0.23267 -0.24237,0.0485 -0.48473,0.13573 -0.7271,0.13573 -0.61076,-0.01 -1.22152,-0.0582 -1.83228,-0.097 -1.49297,-0.10664 -2.99563,-0.1745 -4.47891,-0.33931 -1.26999,-0.13572 -2.53029,-0.38778 -3.80028,-0.59137 -1.31847,-0.21328 -2.64663,-0.3587 -3.9457,-0.67862 -2.22976,-0.5429 -4.46921,-1.0761 -6.62142,-1.85167 -2.3364,-0.84343 -4.60493,-1.90014 -6.825,-3.00533 -1.2506,-0.62045 -2.38487,-1.50266 -3.49975,-2.34609 -1.41541,-1.06641 -2.76296,-2.21037 -4.1299,-3.33495 -0.52351,-0.43625 -0.68832,-0.36839 -1.00824,0.20359 -0.36839,0.64954 -0.85312,1.22152 -1.29907,1.82259 -1.27969,1.74502 -2.84052,3.17013 -4.74066,4.20745 -0.66893,0.3684 -1.38633,0.64954 -2.08434,0.95007 -0.49443,0.21329 -0.89191,0.01 -1.31847,-0.37809 0.13572,-0.12602 0.24237,-0.25205 0.37809,-0.33931 1.01793,-0.64953 2.05526,-1.28938 3.07319,-1.95831 0.19389,-0.12603 0.28114,-0.39747 0.44595,-0.58167 0.46534,-0.51382 0.95977,-1.01794 1.42511,-1.53175 0.85312,-0.95007 1.56083,-1.98739 2.05525,-3.17013 0.17451,-0.40718 0.40718,-0.77557 0.57198,-1.18275 0.16481,-0.40717 0.01,-0.75617 -0.30053,-1.04701 -0.77557,-0.7174 -1.54144,-1.4445 -2.29762,-2.18129 -0.38778,-0.37809 -0.73679,-0.78526 -1.12457,-1.16335 -0.17451,-0.1745 -0.37809,-0.30053 -0.65924,-0.52351 -0.24236,0.47504 -0.41686,0.8919 -0.64953,1.26999 -0.47504,0.76588 -0.66893,1.73534 -1.59961,2.17159 -0.15512,0.0776 -0.25206,0.33932 -0.31023,0.53321 -0.34901,1.16335 -0.69801,2.3267 -1.01793,3.49975 -0.20359,0.73679 -0.33932,1.50266 -0.57199,2.22976 -0.28114,0.9016 -0.63984,1.77411 -0.96946,2.65632 -0.25206,0.66893 -0.5332,1.33785 -0.80465,1.99709 -0.0485,0.12603 -0.14542,0.29084 -0.25206,0.31992 -1.08579,0.36839 -2.1425,-0.40717 -2.22006,-1.50266 -0.0872,-1.18275 -0.27145,-2.36549 -0.47504,-3.54823 -0.0485,-0.27145 -0.31992,-0.50412 -0.48473,-0.76587 -0.13572,-0.0873 -0.20358,-0.097 -0.27145,-0.11634 z m 3.99418,-20.05813 c -0.22298,0.0291 -0.29084,0.0194 -0.32962,0.0485 -0.59137,0.51382 -1.18274,1.02763 -1.77411,1.54144 -0.47503,0.40718 -0.97915,0.79496 -1.44449,1.21183 -0.63015,0.57198 -1.23122,1.17305 -1.83228,1.77411 -0.37809,0.38779 -0.7271,0.80465 -1.07611,1.22152 -0.41686,0.49443 -0.91129,0.95007 -1.21182,1.50267 -0.37809,0.69801 -0.55259,1.50266 -0.9016,2.22975 -0.52351,1.0858 -1.15366,2.12312 -1.4348,3.32525 -0.13572,0.57198 -0.40717,1.10519 -0.61076,1.65778 -0.33931,0.88221 -0.67862,1.76442 -1.00824,2.64663 -0.13572,0.37809 -0.24236,0.76587 -0.3587,1.15365 0.0776,0.0388 0.15512,0.0679 0.23267,0.10664 4.74066,-5.5647 8.32767,-11.86619 11.74986,-18.41974 z"
   id="path6"
   style="fill:#800000;fill-opacity:1;stroke:#782121;stroke-width:0.96946;stroke-opacity:1" /><g
   id="g128"
   transform="matrix(0.96946024,0,0,0.96946024,4.2962617,48.833823)"
   style="fill:#800000;fill-opacity:1;stroke:#782121;stroke-opacity:1"><path
     d="m 1007.49,493.87 c -0.92,0.46 -1.84,0.87 -2.71,1.35 -0.92,0.51 -1.8,1.1 -2.7,1.64 -0.99,0.6 -1.99,1.19 -2.99,1.77 -0.15,0.09 -0.33,0.14 -0.5,0.2 -1.13,0.37 -2.25,0.76 -3.39,1.1 -0.99,0.29 -1.97,0.2 -2.93,-0.18 -0.15,-0.06 -0.28,-0.15 -0.43,-0.2 -0.98,-0.36 -1,-0.39 -0.51,-1.28 0.68,-1.23 1.39,-2.44 2.07,-3.67 0.48,-0.86 0.9,-1.75 1.39,-2.6 0.35,-0.6 0.79,-1.16 1.19,-1.73 0.02,-0.03 0.04,-0.07 0.06,-0.1 0.74,-1.48 1.55,-2.94 2.21,-4.45 0.33,-0.76 0.56,-1.62 -0.01,-2.44 -0.08,-0.11 -0.05,-0.35 0.01,-0.49 0.03,-0.06 0.31,-0.07 0.43,-0.01 0.68,0.36 1.37,0.58 1.73,1.47 0.34,0.83 0.12,1.45 -0.16,2.14 -0.23,0.57 -0.46,1.15 -0.77,1.67 -0.66,1.12 -1.39,2.19 -2.05,3.31 -0.55,0.93 -1.01,1.91 -1.56,2.84 -0.61,1.04 -1.29,2.04 -1.9,3.08 -0.27,0.47 -0.45,0.99 -0.74,1.64 0.39,-0.05 0.63,-0.03 0.82,-0.12 1.55,-0.66 3.1,-1.32 4.62,-2.02 0.99,-0.46 1.97,-0.97 2.93,-1.5 0.43,-0.24 0.77,-0.63 1.2,-0.87 1.3,-0.71 2.62,-1.41 3.96,-2.05 0.46,-0.22 0.99,-0.31 1.5,-0.36 0.88,-0.1 1.5,0.55 2.18,0.95 0.17,0.1 0.2,0.68 0.09,0.97 -0.2,0.53 -0.51,1.03 -0.84,1.5 -0.42,0.6 -0.89,1.16 -1.36,1.73 -0.56,0.68 -1.12,1.37 -1.71,2.02 -1.14,1.27 -2.35,2.47 -3.42,3.79 -0.69,0.85 -1.54,1.59 -1.41,2.98 0.14,1.47 -0.17,2.99 -0.29,4.48 -0.01,0.16 0,0.31 0,0.44 0.59,-0.34 1.19,-0.64 1.74,-1.01 0.67,-0.45 1.29,-0.96 1.95,-1.43 0.25,-0.18 0.54,-0.32 0.82,-0.47 0.77,-0.41 1.56,-0.78 2.31,-1.22 0.74,-0.44 1.48,-0.25 2.22,-0.07 0.21,0.05 0.41,0.26 0.54,0.44 0.06,0.08 -0.04,0.38 -0.14,0.44 -1.05,0.58 -2.12,1.14 -3.19,1.69 -0.33,0.17 -0.72,0.25 -1.03,0.45 -0.71,0.46 -1.39,0.96 -2.09,1.44 -0.72,0.49 -1.45,0.96 -2.17,1.44 -0.81,0.52 -1.54,1.09 -1.42,2.25 0.09,0.03 0.19,0.07 0.3,0.1 0.59,0.14 1.04,0.32 1.32,1 0.23,0.57 0.83,0.99 1.27,1.49 0.7,0.8 1.38,1.62 2.1,2.41 0.24,0.26 0.54,0.47 0.83,0.68 0.46,0.34 0.83,0.14 0.94,-0.43 0.09,-0.42 0.26,-0.82 0.45,-1.21 0.35,-0.74 0.72,-1.48 1.1,-2.21 0.14,-0.27 0.27,-0.55 0.47,-0.76 0.95,-0.99 1.74,-2.08 2.16,-3.41 0.09,-0.29 0.3,-0.57 0.49,-0.81 0.3,-0.38 0.66,-0.59 1.19,-0.38 0.9,0.35 1.63,0.82 1.75,1.88 0.01,0.06 0.03,0.12 0.06,0.17 0.7,1.31 1.39,2.63 2.09,3.94 0.24,0.44 0.61,0.64 1.14,0.59 0.52,-0.04 0.85,0.27 1.06,0.73 0.1,0.22 0.19,0.44 0.28,0.66 0.2,0.45 -0.03,0.84 -0.52,0.76 -0.48,-0.08 -1.04,-0.04 -1.38,-0.58 -0.12,-0.18 -0.48,-0.19 -0.67,-0.35 -1.19,-1.02 -2.18,-2.17 -2.72,-3.68 -0.3,-0.84 -0.64,-1.66 -1.01,-2.47 -0.13,-0.28 -0.33,-0.39 -0.71,-0.12 -0.94,0.69 -1.4,1.67 -1.79,2.69 -0.46,1.19 -0.81,2.42 -1.23,3.62 -0.33,0.95 -0.63,1.9 -0.45,2.94 0.02,0.14 -0.28,0.44 -0.47,0.47 -0.3,0.05 -0.68,0.04 -0.93,-0.11 -0.73,-0.43 -1.42,-0.93 -2.11,-1.43 -0.36,-0.27 -0.71,-0.57 -0.98,-0.91 -0.75,-0.94 -1.43,-1.94 -2.21,-2.85 -0.52,-0.59 -1.17,-1.07 -1.78,-1.58 -0.07,-0.06 -0.31,-0.01 -0.4,0.07 -0.12,0.11 -0.22,0.29 -0.26,0.46 -0.24,0.85 -0.42,1.73 -0.72,2.56 -0.25,0.7 -0.61,1.36 -0.94,2.04 -0.44,0.92 -0.85,1.87 -1.36,2.76 -0.39,0.66 -0.91,1.24 -1.4,1.84 -0.1,0.13 -0.3,0.23 -0.46,0.24 -0.24,0.02 -0.49,-0.05 -0.73,-0.09 0.08,-0.22 0.12,-0.48 0.26,-0.66 0.94,-1.25 1.58,-2.64 2.1,-4.1 0.37,-1.04 0.79,-2.07 1.1,-3.13 0.2,-0.68 0.58,-1.37 0.22,-2.24 -0.57,0.32 -1.15,0.55 -1.6,0.94 -0.86,0.72 -1.87,1.21 -2.71,1.92 -0.7,0.59 -1.75,0.72 -2.16,1.67 -0.04,0.09 -0.19,0.14 -0.28,0.21 -0.87,0.6 -1.74,1.2 -2.6,1.8 -0.89,0.62 -1.77,1.29 -2.68,1.88 -1.65,1.07 -3.29,2.14 -4.85,3.33 -1.64,1.25 -3.33,2.42 -5.04,3.56 -0.82,0.54 -1.7,1.01 -2.62,1.35 -0.65,0.24 -1.31,-0.07 -1.96,-0.59 0.52,-0.35 0.97,-0.66 1.43,-0.95 0.98,-0.63 1.98,-1.23 2.94,-1.87 1.08,-0.72 2.16,-1.43 3.18,-2.22 1.14,-0.88 2.21,-1.85 3.3,-2.79 1.07,-0.91 2.16,-1.82 3.2,-2.76 0.58,-0.52 1.08,-1.13 1.63,-1.67 0.75,-0.73 1.52,-1.45 2.27,-2.17 0.27,-0.26 0.52,-0.53 0.78,-0.8 0.07,0.06 0.14,0.12 0.21,0.18 -0.54,0.69 -1.03,1.43 -1.63,2.05 -0.52,0.53 -1.22,0.88 -1.76,1.4 -0.39,0.38 -0.61,0.92 -0.96,1.35 -0.28,0.33 -0.63,0.6 -0.96,0.89 0.03,0.05 0.06,0.1 0.09,0.16 0.25,-0.07 0.56,-0.07 0.75,-0.22 1.07,-0.8 2.09,-1.66 3.17,-2.45 0.9,-0.66 1.86,-1.25 2.79,-1.87 0.15,-0.1 0.27,-0.23 0.4,-0.35 1.41,-1.13 2.8,-2.26 4.22,-3.37 0.71,-0.56 1.47,-1.06 2.19,-1.61 0.15,-0.12 0.31,-0.34 0.32,-0.53 0.1,-1.49 0.17,-2.98 0.24,-4.48 0.01,-0.15 -0.05,-0.29 -0.1,-0.59 -0.64,0.73 -1.2,1.34 -1.74,1.98 -0.37,0.44 -0.61,1.08 -1.07,1.34 -1.31,0.74 -1.87,2.17 -3.03,3.02 -0.14,0.1 -0.2,0.29 -0.31,0.43 -0.38,0.49 -0.77,0.97 -1.16,1.45 -0.11,0.14 -0.27,0.26 -0.3,0.42 -0.15,0.64 -0.62,0.51 -1.2,0.58 0.6,-0.73 1.11,-1.32 1.59,-1.93 0.67,-0.85 1.3,-1.74 2,-2.57 0.52,-0.63 1.12,-1.2 1.68,-1.81 0.13,-0.14 0.23,-0.31 0.34,-0.47 0.52,-0.75 1.01,-1.51 1.56,-2.24 0.39,-0.51 0.82,-0.98 1.27,-1.44 0.68,-0.7 0.56,-1.6 -0.25,-2.15 -0.21,-0.14 -0.4,-0.51 -0.38,-0.76 0.02,-0.35 0.69,-0.59 1.05,-0.42 0.28,0.13 0.54,0.33 0.8,0.52 0.33,0.25 0.59,0.33 0.9,-0.07 1.32,-1.71 2.68,-3.39 4.01,-5.09 0.76,-0.97 1.61,-1.88 1.99,-3.1 0.04,-0.13 0.08,-0.27 0.1,-0.4 0.03,-0.01 0,-0.07 -0.05,-0.23 z"
     id="path10"
     style="fill:#800000;fill-opacity:1;stroke:#782121;stroke-opacity:1" /><path
     d="m 1018.12,511.33 c 0.51,-0.13 0.97,-0.22 1.41,-0.36 0.29,-0.09 0.57,-0.25 0.86,-0.36 0.26,-0.1 0.52,-0.18 0.79,-0.26 0.09,-0.03 0.2,-0.03 0.27,-0.08 1.35,-0.91 2.84,-1.44 4.46,-1.62 0.37,-0.04 0.73,-0.22 1.1,-0.26 1.41,-0.14 2.6,0.44 3.62,1.33 0.41,0.35 0.5,0.91 0.28,1.44 -0.3,0.73 -0.6,1.46 -0.99,2.15 -0.56,0.98 -1.21,1.91 -1.81,2.87 -0.19,0.32 -0.33,0.66 -0.5,1 -0.03,0.07 -0.05,0.15 -0.1,0.22 -0.53,0.71 -1.07,1.41 -1.58,2.13 -0.12,0.17 -0.13,0.42 -0.19,0.63 0.24,0.07 0.51,0.24 0.72,0.18 1.07,-0.29 2.15,-0.59 3.18,-0.99 1.55,-0.6 2.92,-0.21 4.22,0.61 0.61,0.38 0.7,1.37 0.16,2 -0.44,0.51 -0.83,1.11 -1.6,1.25 -0.45,0.09 -0.7,0 -0.71,-0.48 -0.01,-0.31 0.08,-0.62 0.09,-0.94 0.01,-0.23 0.03,-0.5 -0.08,-0.67 -0.06,-0.09 -0.4,-0.04 -0.59,0.01 -2.05,0.45 -4.08,1.14 -6.22,0.64 -0.53,-0.12 -1.06,-0.31 -1.56,-0.54 -0.41,-0.19 -0.47,-0.52 -0.19,-0.94 0.96,-1.43 1.93,-2.86 2.84,-4.33 0.78,-1.26 1.52,-2.56 2.2,-3.88 0.27,-0.52 0.36,-1.14 0.48,-1.72 0.09,-0.46 -0.39,-0.88 -0.85,-0.79 -1.65,0.33 -3.26,0.78 -4.76,1.57 -0.4,0.21 -0.86,0.29 -1.28,0.47 -0.42,0.18 -0.84,0.37 -1.22,0.62 -0.96,0.64 -1.89,0.42 -2.45,-0.9 z"
     id="path18"
     style="fill:#800000;fill-opacity:1;stroke:#782121;stroke-opacity:1" /></g><g
   id="g44"
   transform="matrix(0.96946024,0,0,0.96946024,28.82632,33.831249)"
   style="fill:#800000;fill-opacity:1;stroke:#782121;stroke-opacity:1"><path
     d="m 916.72,499.88 c 0.18,0.03 0.38,0.03 0.53,0.11 0.83,0.45 1.67,0.91 2.48,1.4 0.71,0.42 1.16,0.22 1.22,-0.59 0.11,-1.53 0.27,-3.07 0.29,-4.6 0.01,-1.08 -0.17,-2.17 -0.26,-3.25 -0.04,-0.45 -0.08,-0.91 -0.13,-1.36 -0.02,-0.12 -0.09,-0.34 -0.14,-0.34 -0.14,0 -0.32,0.05 -0.41,0.15 -0.77,0.8 -1.52,1.62 -2.27,2.43 -0.48,0.52 -0.98,1.02 -1.45,1.54 -0.49,0.55 -0.95,1.13 -1.44,1.68 -0.09,0.1 -0.2,0.19 -0.32,0.26 -0.4,0.22 -0.65,0.47 -0.27,0.93 0.06,0.08 0.1,0.28 0.05,0.34 -0.48,0.6 -0.12,1.26 -0.19,1.89 -0.06,0.49 -0.2,0.96 -0.29,1.44 -0.18,1.01 -0.39,2.02 -0.5,3.05 -0.24,2.26 0.94,3.74 2.78,4.8 0.67,0.38 1.37,0.78 2.1,0.94 0.86,0.18 1.78,0.15 2.67,0.11 1.09,-0.05 2.18,-0.15 3.25,-0.35 0.89,-0.17 1.78,-0.44 2.62,-0.79 1.38,-0.57 2.73,-1.22 4.06,-1.89 0.85,-0.43 1.66,-0.94 2.45,-1.48 0.27,-0.18 0.46,-0.54 0.58,-0.86 0.15,-0.41 0.44,-0.53 0.79,-0.46 0.33,0.07 0.57,0.22 0.59,0.69 0.09,1.94 -1.26,2.85 -2.64,3.66 -1.24,0.73 -2.55,1.39 -3.9,1.9 -1.18,0.45 -2.44,0.72 -3.68,0.94 -0.95,0.17 -1.94,0.15 -2.91,0.17 -1.59,0.02 -3.12,-0.31 -4.59,-0.92 -1.75,-0.73 -3.38,-1.67 -4.55,-3.2 -0.98,-1.28 -1.3,-2.77 -0.87,-4.39 0.35,-1.32 0.6,-2.67 0.89,-4 0.01,-0.06 -0.04,-0.14 -0.1,-0.36 -0.33,0.36 -0.68,0.62 -0.87,0.97 -0.52,0.95 -1.14,1.79 -2.07,2.37 -0.05,0.03 -0.1,0.07 -0.13,0.12 -0.51,0.8 -1.01,1.6 -1.53,2.39 -0.21,0.32 -0.49,0.6 -0.73,0.9 -0.78,0.96 -1.57,1.92 -2.34,2.89 -0.56,0.7 -1.09,1.42 -1.63,2.13 -0.2,0.26 -0.4,0.53 -0.55,0.82 -0.18,0.35 -0.7,0.51 -1.02,0.27 -0.94,-0.7 -0.95,-0.9 -0.07,-1.69 0.1,-0.09 0.22,-0.18 0.29,-0.3 0.82,-1.3 1.81,-2.46 2.89,-3.54 0.03,-0.03 0.06,-0.05 0.08,-0.09 0.43,-0.65 0.85,-1.32 1.31,-1.96 0.66,-0.94 1.34,-1.86 2.04,-2.77 1.03,-1.35 2.05,-2.7 3.12,-4.02 0.95,-1.17 1.97,-2.29 2.95,-3.45 0.37,-0.44 0.71,-0.9 1.07,-1.35 -0.04,-0.04 -0.07,-0.08 -0.11,-0.12 -0.1,0.03 -0.21,0.04 -0.29,0.1 -0.75,0.5 -1.61,0.9 -2.21,1.54 -0.61,0.65 -1.43,0.8 -2.09,1.27 -0.3,0.22 -0.49,0.58 -0.78,0.83 -0.86,0.74 -1.75,1.45 -2.63,2.16 -0.1,0.08 -0.25,0.11 -0.37,0.16 -0.11,0.04 -0.25,0.03 -0.34,0.09 -0.64,0.5 -1.4,0.93 -1.89,1.56 -0.8,1.04 -1.89,1.7 -2.88,2.5 -0.78,0.64 -1.49,1.37 -2.23,2.05 -0.1,0.09 -0.19,0.24 -0.31,0.28 -1.15,0.33 -1.71,1.4 -2.59,2.06 -0.73,0.55 -1.48,1.07 -2.22,1.6 -0.58,0.41 -1.14,0.84 -1.73,1.24 -0.47,0.32 -0.92,0.7 -1.44,0.93 -1.42,0.63 -2.7,1.66 -4.37,1.61 -0.64,-0.02 -1.19,-0.26 -1.76,-0.85 0.6,-0.5 1.15,-0.99 1.73,-1.44 0.55,-0.43 1.09,-0.92 1.72,-1.19 1.75,-0.78 3.09,-2.14 4.7,-3.12 0.99,-0.6 1.8,-1.48 2.72,-2.21 1.41,-1.13 2.83,-2.24 4.26,-3.35 1.13,-0.87 2.29,-1.71 3.42,-2.59 0.63,-0.49 1.23,-1.03 1.86,-1.53 0.57,-0.45 1.16,-0.87 1.71,-1.34 0.4,-0.34 0.76,-0.74 1.13,-1.13 1.12,-1.18 2.34,-2.28 3.32,-3.57 0.66,-0.87 1.01,-1.99 1.43,-3.03 0.21,-0.52 -0.05,-0.95 -0.58,-1.22 -0.47,-0.25 -0.92,-0.55 -1.35,-0.87 -0.75,-0.56 -0.77,-1.26 -0.34,-2.05 0.7,-1.31 1.43,-2.64 1.31,-4.21 -0.02,-0.26 -0.14,-0.55 -0.31,-0.74 -0.6,-0.66 -1.24,-1.29 -1.87,-1.93 -0.53,-0.54 -1.07,-1.06 -1.57,-1.62 -0.29,-0.32 -0.17,-0.58 0.26,-0.67 0.76,-0.15 1.37,0.22 1.68,0.91 0.17,0.36 0.44,0.7 0.72,0.98 0.87,0.83 1.79,1.6 2.64,2.46 0.81,0.82 0.65,1.81 0.27,2.76 -0.37,0.92 -0.82,1.8 -1.23,2.7 -0.25,0.55 -0.01,0.93 0.54,1.26 0.68,0.41 1.32,0.91 1.91,1.45 0.39,0.36 0.31,1.15 -0.05,1.54 -0.08,0.09 -0.24,0.17 -0.24,0.25 0.07,1.35 -1.19,1.93 -1.72,2.93 -0.18,0.34 -0.59,0.57 -0.88,0.86 -0.06,0.06 -0.06,0.17 -0.13,0.41 0.65,-0.34 1.18,-0.61 1.7,-0.9 0.27,-0.15 0.51,-0.36 0.78,-0.52 0.85,-0.51 1.7,-1.01 2.56,-1.5 0.18,-0.1 0.4,-0.13 0.58,-0.24 0.36,-0.22 0.71,-0.46 1.06,-0.69 0.16,-0.11 0.3,-0.27 0.47,-0.36 0.89,-0.47 0.85,-1.31 0.84,-2.12 -0.01,-1.23 -0.37,-2.44 -0.08,-3.7 0.21,-0.91 0.25,-1.91 0.11,-2.83 -0.23,-1.54 -0.01,-3.04 0.06,-4.55 0.01,-0.28 -0.01,-0.56 0,-0.84 0.03,-1.1 0.1,-2.21 0.1,-3.31 0,-1.07 -0.08,-2.14 -0.11,-3.21 -0.01,-0.23 0.05,-0.47 0.07,-0.7 0.03,-0.31 0.07,-0.62 0.07,-0.94 0,-0.46 -0.04,-0.93 -0.06,-1.39 -0.01,-0.38 -0.02,-0.77 -0.01,-1.15 0.01,-0.55 0.05,-1.09 0.06,-1.64 0.01,-0.57 0.01,-1.13 0.02,-1.7 0.04,-2.27 0.11,-4.53 0.11,-6.8 0,-0.64 -0.19,-1.29 -0.3,-1.97 -0.12,0.05 -0.23,0.1 -0.38,0.16 0.01,-0.09 0,-0.15 0.02,-0.2 0.16,-0.25 0.3,-0.52 0.48,-0.75 0.39,-0.48 0.58,-0.48 1.02,-0.07 0.18,0.17 0.4,0.31 0.63,0.41 0.44,0.19 0.41,0.49 0.3,0.88 -0.1,0.34 -0.08,0.71 -0.1,1.07 -0.01,0.18 0.11,0.37 0.06,0.53 -0.36,1.19 -0.01,2.4 -0.13,3.59 -0.1,0.95 -0.15,1.91 -0.19,2.86 -0.02,0.41 0.04,0.82 0.06,1.23 0.01,0.14 0,0.27 -0.01,0.41 -0.04,0.54 -0.1,1.08 -0.14,1.63 -0.04,0.49 -0.07,0.99 -0.08,1.48 0,0.29 0.08,0.59 0.07,0.88 -0.06,2.09 -0.14,4.17 -0.2,6.26 -0.04,1.36 -0.03,2.72 -0.05,4.08 -0.01,0.95 -0.01,1.9 -0.08,2.85 -0.04,0.62 -0.24,1.24 -0.26,1.86 -0.02,0.67 0.1,1.33 0.13,2 0.06,1.27 0.09,2.54 0.17,3.8 0.04,0.6 -0.05,1.24 0.5,1.72 0.18,0.15 0.23,0.45 0.34,0.69 -0.85,0.54 -0.5,1.34 -0.46,2.03 0.04,0.75 0.25,1.49 0.32,2.24 0.05,0.55 -0.01,1.11 -0.03,1.66 0,0.12 -0.04,0.24 -0.04,0.36 0.05,0.83 0.12,1.67 0.16,2.5 0.01,0.21 -0.11,0.42 -0.1,0.63 0.03,0.58 0.1,1.16 0.14,1.74 0.03,0.54 0.05,1.08 0.05,1.62 0,0.33 -0.52,0.75 -0.9,0.71 -2.12,-0.21 -3.89,-1.15 -5.44,-2.56 0.01,-0.1 0.03,-0.16 0.04,-0.23 z m -14.03,0.75 c -0.03,-0.05 -0.06,-0.1 -0.1,-0.15 -0.43,0.23 -0.88,0.43 -1.28,0.7 -0.29,0.2 -0.49,0.53 -0.78,0.73 -0.81,0.57 -1.67,1.08 -2.46,1.68 -0.61,0.46 -1.12,1.04 -1.7,1.54 -0.4,0.35 -0.84,0.66 -1.26,0.98 -0.9,0.67 -1.81,1.34 -2.7,2.02 -0.56,0.43 -1.11,0.89 -1.66,1.34 0.05,0.09 0.09,0.19 0.14,0.28 0.22,-0.05 0.47,-0.04 0.65,-0.15 0.38,-0.24 0.71,-0.55 1.08,-0.81 0.93,-0.66 1.87,-1.31 2.8,-1.97 0.55,-0.39 1.12,-0.75 1.65,-1.17 0.56,-0.44 1.09,-0.92 1.63,-1.39 1.31,-1.14 2.62,-2.28 3.92,-3.42 0.05,-0.04 0.05,-0.14 0.07,-0.21 z"
     id="path8"
     style="fill:#800000;fill-opacity:1;stroke:#782121;stroke-opacity:1" /><path
     d="m 907.72,473.88 c 0.58,-1.14 1.11,-2.14 1.61,-3.15 0.24,-0.49 0.38,-1.04 0.65,-1.52 0.26,-0.47 0.66,-0.85 0.92,-1.32 0.62,-1.12 1.18,-2.27 1.79,-3.4 0.26,-0.49 0.57,-0.96 0.96,-1.41 -0.24,0.64 -0.41,1.31 -0.72,1.9 -0.41,0.76 -0.96,1.44 -1.39,2.19 -0.13,0.22 0.01,0.61 -0.11,0.83 -0.34,0.61 -0.75,1.18 -1.15,1.76 -0.25,0.36 -0.35,0.78 -0.5,1.17 -0.38,0.97 -1.01,1.84 -1.53,2.76 -0.08,0.14 -0.07,0.33 -0.09,0.5 -0.03,0.35 -0.01,0.72 -0.09,1.06 -0.2,0.89 -0.48,1.77 -0.64,2.67 -0.23,1.25 -0.43,2.51 -0.56,3.78 -0.22,2.11 -0.4,4.23 -0.57,6.35 -0.14,1.8 -0.23,3.6 -0.33,5.4 -0.01,0.19 -0.02,0.42 0.06,0.58 0.21,0.41 0.26,0.78 -0.15,1.05 -0.44,0.29 -0.88,0.13 -1.28,-0.13 -0.13,-0.08 -0.22,-0.23 -0.36,-0.31 -0.87,-0.5 -0.81,-0.48 -0.58,-1.49 0.16,-0.68 0.07,-1.41 0.15,-2.12 0.1,-0.92 0.25,-1.84 0.37,-2.76 0.08,-0.62 0.13,-1.24 0.21,-1.86 0.08,-0.67 0.18,-1.34 0.27,-2.01 0.06,-0.47 0.12,-0.95 0.17,-1.42 0.14,-1.28 0.12,-2.61 0.45,-3.84 0.45,-1.7 0.39,-3.45 0.72,-5.15 0.22,-1.13 0.42,-2.27 0.59,-3.42 0.09,-0.6 0.11,-1.22 0.16,-1.83 0.01,-0.1 -0.01,-0.21 0.03,-0.3 0.48,-1.17 0.38,-2.44 0.66,-3.64 0.32,-1.38 0.58,-2.78 0.83,-4.18 0.14,-0.76 0.18,-1.54 0.31,-2.3 0.08,-0.46 0.26,-0.89 0.4,-1.34 0.04,-0.11 0.09,-0.22 0.11,-0.34 0.21,-1.13 0.41,-2.26 0.61,-3.39 0.01,-0.06 -0.01,-0.12 0.01,-0.18 0.34,-1 0.6,-2.04 1.08,-2.97 0.24,-0.47 0.83,-0.81 1.33,-1.08 0.44,-0.23 1.25,0.18 1.48,0.63 0.18,0.35 0.07,0.68 -0.31,0.63 -1.2,-0.14 -1.42,0.83 -1.74,1.56 -0.32,0.72 -0.42,1.53 -0.61,2.3 -0.31,1.25 -0.63,2.49 -0.93,3.74 -0.12,0.52 -0.18,1.06 -0.32,1.57 -0.23,0.85 -0.55,1.67 -0.75,2.52 -0.14,0.61 -0.11,1.26 -0.22,1.88 -0.13,0.7 -0.37,1.37 -0.52,2.07 -0.06,0.3 0.02,0.64 -0.03,0.95 -0.11,0.68 -0.26,1.34 -0.39,2.02 -0.03,0.14 0.01,0.29 0,0.44 -0.01,0.43 -0.03,0.86 -0.06,1.29 -0.04,0.63 -0.09,1.26 -0.15,1.89 -0.03,0.31 -0.08,0.62 -0.08,0.93 -0.02,0.1 0.1,0.22 0.23,0.44 z"
     id="path16"
     style="fill:#800000;fill-opacity:1;stroke:#782121;stroke-opacity:1" /><path
     d="m 914.8,460.99 c -0.05,-0.66 0.38,-1.44 1.07,-1.84 -0.34,0.59 -0.68,1.18 -1.07,1.84 z"
     id="path22"
     style="fill:#800000;fill-opacity:1;stroke:#782121;stroke-opacity:1" /><path
     class="st0"
     d="m 902.69,500.63 c -0.02,0.07 -0.02,0.17 -0.07,0.21 -1.31,1.14 -2.61,2.28 -3.92,3.42 -0.54,0.47 -1.07,0.95 -1.63,1.39 -0.53,0.41 -1.1,0.78 -1.65,1.17 -0.93,0.66 -1.87,1.31 -2.8,1.97 -0.37,0.26 -0.7,0.57 -1.08,0.81 -0.18,0.11 -0.43,0.1 -0.65,0.15 -0.05,-0.09 -0.09,-0.19 -0.14,-0.28 0.55,-0.45 1.1,-0.9 1.66,-1.34 0.89,-0.68 1.8,-1.34 2.7,-2.02 0.43,-0.32 0.86,-0.63 1.26,-0.98 0.58,-0.5 1.1,-1.08 1.7,-1.54 0.79,-0.6 1.65,-1.11 2.46,-1.68 0.29,-0.2 0.49,-0.53 0.78,-0.73 0.4,-0.27 0.85,-0.47 1.28,-0.7 0.03,0.05 0.06,0.1 0.1,0.15 z"
     id="path26"
     style="fill:#800000;fill-opacity:1;stroke:#782121;stroke-opacity:1" /></g><g
   id="g134"
   transform="matrix(0.96946024,0,0,0.96946024,6.6145641,59.030347)"
   style="fill:none;stroke:#782121;stroke-opacity:1"><path
     d="m 989.98,601.17 c 0.34,-0.29 0.58,-0.51 0.83,-0.72 0.61,-0.5 1.03,-0.38 1.08,0.39 0.04,0.69 -0.09,1.41 -0.22,2.1 -0.03,0.18 -0.38,0.42 -0.58,0.41 -1.03,-0.05 -1.89,-0.46 -2.45,-1.37 -0.56,-0.89 -1.03,-1.81 -0.72,-2.92 0.04,-0.16 -0.05,-0.35 -0.09,-0.53 -0.13,-0.56 -0.16,-1.1 0.26,-1.58 0.06,-0.07 0.14,-0.2 0.11,-0.26 -0.28,-0.69 0.14,-1.28 0.29,-1.9 0.18,-0.76 0.54,-1.47 0.83,-2.2 0.31,-0.77 0.63,-1.54 0.95,-2.3 0.37,-0.89 0.67,-1.82 1.12,-2.68 1,-1.91 2.06,-3.79 3.11,-5.67 0.61,-1.08 1.31,-2.1 2.22,-2.96 0.17,-0.16 0.33,-0.35 0.44,-0.55 0.61,-1.22 1.9,-1.72 2.79,-2.65 1.08,-1.13 2.21,-2.23 3.3,-3.35 0.65,-0.67 1.26,-1.38 1.95,-2.01 0.9,-0.83 1.74,-1.71 2.81,-2.35 0.65,-0.39 1.16,-1 1.77,-1.46 1.06,-0.8 2.15,-1.57 3.23,-2.34 0.61,-0.43 1.24,-0.84 1.88,-1.24 0.87,-0.55 1.74,-1.1 2.63,-1.61 0.78,-0.44 1.59,-0.83 2.38,-1.25 0.14,-0.07 0.28,-0.17 0.38,-0.29 0.12,-0.14 0.2,-0.32 0.3,-0.49 -0.18,-0.03 -0.35,-0.1 -0.53,-0.08 -2.58,0.15 -5.03,0.75 -7.46,1.66 -0.99,0.37 -1.99,0.73 -2.97,1.14 -0.36,0.15 -0.64,0.51 -1,0.68 -0.84,0.41 -1.73,0.72 -2.55,1.16 -0.6,0.32 -1.11,0.83 -1.7,1.18 -1.09,0.64 -2.2,1.25 -3.34,1.82 -1.61,0.8 -3.24,1.56 -4.86,2.33 -1.56,0.73 -3.15,1.4 -4.67,2.19 -0.69,0.36 -1.42,0.55 -2.13,0.82 -1.37,0.53 -2.68,1.26 -4.07,1.71 -1.14,0.37 -2.38,0.53 -3.58,0.61 -0.41,0.03 -0.85,-0.45 -1.4,-0.77 1.23,-0.39 2.27,-0.7 3.29,-1.06 0.67,-0.24 1.31,-0.56 1.96,-0.85 1.89,-0.85 3.76,-1.7 5.78,-2.22 0.81,-0.21 1.57,-0.67 2.33,-1.05 0.88,-0.45 1.75,-0.93 2.62,-1.41 1.46,-0.81 2.91,-1.65 4.37,-2.45 0.48,-0.27 1.01,-0.46 1.49,-0.72 1.27,-0.69 2.5,-1.46 3.79,-2.11 1.83,-0.92 3.38,-2.22 4.94,-3.52 1.27,-1.07 2.55,-2.12 3.81,-3.2 0.48,-0.41 0.85,-0.96 1.36,-1.34 0.95,-0.72 1.64,-1.67 2.39,-2.57 0.22,-0.27 0.39,-0.61 0.49,-0.94 0.17,-0.55 -0.09,-0.93 -0.66,-1.01 -1.45,-0.2 -2.91,-0.36 -4.35,-0.6 -0.25,-0.04 -0.46,-0.33 -0.68,-0.51 0.16,-0.2 0.3,-0.52 0.49,-0.57 0.45,-0.11 0.95,-0.16 1.41,-0.09 1.15,0.17 2.3,0.43 3.44,0.64 1.14,0.21 1.97,0.91 2.7,1.74 0.47,0.53 0,1.69 -0.51,2.29 -0.54,0.63 -1.12,1.25 -1.75,1.79 -1.29,1.12 -2.63,2.17 -3.94,3.27 -0.45,0.38 -0.86,0.8 -1.29,1.2 0.02,0.06 0.04,0.12 0.05,0.19 0.78,-0.12 1.58,-0.21 2.35,-0.38 2.21,-0.49 4.45,-0.62 6.68,-0.49 0.78,0.05 1.55,0.64 2.28,1.07 0.16,0.09 0.1,0.55 0.14,0.83 -1.81,0.77 -3.58,1.5 -5.34,2.28 -0.67,0.3 -1.29,0.71 -1.94,1.04 -0.31,0.16 -0.67,0.22 -0.98,0.38 -0.72,0.36 -1.4,0.94 -2.16,1.07 -0.66,0.12 -0.93,0.75 -1.59,0.8 -0.32,0.02 -0.6,0.41 -0.91,0.61 -0.42,0.28 -0.9,0.5 -1.26,0.85 -0.43,0.41 -1.21,0.33 -1.4,1.06 -0.03,0.1 -0.26,0.15 -0.38,0.23 -0.21,0.13 -0.41,0.28 -0.61,0.42 -0.05,0.03 -0.07,0.13 -0.11,0.14 -0.81,0.07 -0.93,0.93 -1.5,1.29 -0.56,0.36 -1.06,0.84 -1.55,1.3 -0.6,0.57 -1.16,1.18 -1.75,1.76 -0.54,0.54 -1.16,1.01 -1.65,1.59 -0.8,0.95 -1.53,1.95 -2.29,2.94 -0.58,0.75 -1.18,1.49 -1.74,2.25 -0.51,0.7 -1,1.43 -1.45,2.17 -0.6,0.97 -1.18,1.96 -1.74,2.95 -0.25,0.45 -0.42,0.94 -0.65,1.4 -0.17,0.35 -0.4,0.68 -0.57,1.03 -0.4,0.82 -0.81,1.63 -1.15,2.47 -0.47,1.17 -0.87,2.37 -1.31,3.56 -0.14,0.37 -0.35,0.71 -0.47,1.08 -0.32,1.01 -0.63,2.03 -0.92,3.05 -0.15,0.51 -0.37,1.03 -0.35,1.54 0.04,0.66 0.27,1.32 0.45,2.14 z"
     id="path12"
     style="fill:none;stroke:#782121;stroke-opacity:1" /><path
     d="m 1014.37,638.46 c 0.6,-0.38 1.11,-0.7 1.62,-1.03 1.07,-0.68 2.12,-1.37 3.2,-2.04 0.97,-0.61 1.97,-1.18 2.94,-1.79 0.84,-0.52 1.69,-1.04 2.49,-1.62 1.08,-0.77 2.29,-1.4 2.99,-2.59 0.2,-0.34 0.47,-0.8 0.39,-1.13 -0.19,-0.89 -0.41,-1.82 -0.88,-2.59 -0.38,-0.63 -1.12,-1.05 -1.71,-1.54 -1.51,-1.25 -3.29,-2.07 -4.96,-3.07 -0.93,-0.56 -1.85,-1.15 -2.72,-1.81 -0.38,-0.29 -0.63,-0.76 -0.89,-1.18 -0.1,-0.16 -0.11,-0.44 -0.03,-0.62 0.3,-0.69 0.66,-1.35 0.98,-2.03 0.38,-0.81 0.73,-1.62 1.1,-2.43 0.43,-0.94 0.88,-1.87 1.3,-2.82 0.64,-1.46 1.34,-2.91 1.43,-4.55 0.04,-0.79 0.21,-1.56 0.26,-2.35 0.05,-0.98 -0.43,-1.81 -1.18,-2.32 -1.44,-0.99 -3.01,-1.79 -4.46,-2.77 -1.23,-0.83 -1.83,-2.04 -1.65,-3.58 0.06,-0.51 -0.09,-1.05 -0.01,-1.55 0.18,-1.18 0.45,-2.35 0.65,-3.53 0.19,-1.11 0.38,-2.22 0.52,-3.34 0.07,-0.59 0.04,-1.19 0.06,-1.78 0.03,-0.7 -0.48,-1.23 -1.19,-1.28 -0.67,-0.04 -1.24,0.06 -1.82,0.5 -0.8,0.61 -1.74,1.04 -2.61,1.57 -0.27,0.16 -0.51,0.38 -0.73,0.61 -0.81,0.87 -1.83,1.52 -2.45,2.6 -0.36,0.63 -1,1.1 -1.46,1.69 -0.32,0.41 -0.6,0.85 -0.36,1.44 0.52,1.23 0.45,2.56 0.66,3.85 0.13,0.79 0.32,1.58 0.38,2.38 0.05,0.62 -0.06,1.26 -0.07,1.89 -0.01,0.32 0.12,0.64 0.08,0.95 -0.11,0.71 -0.29,1.4 -0.43,2.1 -0.19,0.93 -0.97,1.14 -1.7,1.26 -1.37,0.23 -2.53,-0.41 -3.71,-1.01 -0.79,-0.41 -1.22,-1.1 -1.76,-1.71 -0.59,-0.66 -0.73,-1.44 -0.45,-2.23 0.29,-0.79 0.69,-1.55 1.09,-2.3 0.59,-1.07 1.2,-2.14 1.86,-3.17 0.51,-0.8 1.15,-1.52 1.62,-2.35 0.2,-0.35 0.25,-0.9 0.14,-1.3 -0.15,-0.58 -0.5,-1.11 -0.78,-1.66 -0.25,-0.49 -0.59,-0.84 -1.23,-0.7 -0.18,0.04 -0.41,-0.02 -0.58,-0.11 -0.16,-0.09 -0.36,-0.26 -0.38,-0.42 -0.01,-0.13 0.19,-0.33 0.34,-0.42 1.16,-0.68 2.48,-0.17 3.21,1.21 0.07,0.14 0.14,0.29 0.25,0.4 0.51,0.51 0.74,0.44 1.26,-0.06 1,-0.97 2.07,-1.87 3.1,-2.8 0.31,-0.28 0.57,-0.62 0.9,-0.87 0.64,-0.47 1.28,-0.99 2,-1.31 0.98,-0.45 2.02,-0.79 3.06,-1.06 0.38,-0.1 0.88,0.07 1.26,0.24 1.02,0.45 2.06,0.95 2.43,2.11 0.17,0.53 0.19,1.14 0.16,1.7 -0.12,1.89 -0.57,3.72 -1.05,5.54 -0.24,0.93 -0.23,1.92 -0.35,2.88 -0.05,0.39 -0.27,0.79 -0.2,1.15 0.21,1.06 0.95,1.76 1.84,2.28 1.15,0.67 2.36,1.24 3.49,1.95 1.4,0.88 2.28,2.18 2.44,3.83 0.13,1.37 -0.14,2.71 -0.68,3.99 -0.31,0.74 -0.47,1.54 -0.79,2.28 -0.46,1.07 -1.02,2.1 -1.52,3.15 -0.5,1.05 -0.98,2.11 -1.45,3.17 -0.19,0.42 -0.36,0.86 -0.54,1.29 -0.26,0.64 -0.06,1.16 0.69,1.71 0.89,0.64 1.81,1.21 2.82,1.69 1.49,0.71 2.89,1.61 4.29,2.5 1.2,0.76 2.17,1.78 2.85,3.05 0.43,0.8 0.66,1.69 0.72,2.57 0.03,0.45 -0.14,1 -0.6,1.38 -0.73,0.6 -1.41,1.21 -2.29,1.63 -1,0.48 -1.86,1.23 -2.83,1.78 -0.67,0.39 -1.42,0.64 -2.14,0.96 -0.07,0.03 -0.15,0.04 -0.22,0.08 -1.86,1.02 -3.69,2.08 -5.57,3.04 -0.62,0.32 -1.36,0.39 -2.06,0.56 -0.07,0.01 -0.16,-0.06 -0.38,-0.14 z m -14.33,-38.57 c 0.08,0.11 0.27,0.26 0.29,0.43 0.14,1.36 1.21,1.82 2.21,2.32 0.17,0.09 0.58,-0.07 0.74,-0.25 0.91,-1 0.87,-2.31 0.86,-3.52 0,-1.62 -0.23,-3.25 -0.39,-4.87 -0.04,-0.42 -0.2,-0.84 -0.32,-1.3 -1.68,2.19 -2.68,4.61 -3.39,7.19 z"
     id="path14"
     style="fill:none;stroke:#782121;stroke-opacity:1" /><path
     d="m 999.67,557 c 0.17,0.05 0.48,0.1 0.74,0.25 0.28,0.16 0.68,0.41 0.7,0.64 0.03,0.38 -0.31,0.71 -0.76,0.67 -0.38,-0.04 -0.78,-0.14 -1.13,-0.31 -0.35,-0.17 -0.64,-0.45 -0.96,-0.68 -0.65,-0.47 -0.84,-1.15 -0.59,-1.9 0.08,-0.23 0.07,-0.5 0.07,-0.75 -0.01,-0.82 -0.16,-1.67 -0.01,-2.46 0.09,-0.44 0.64,-0.83 1.06,-1.14 0.11,-0.08 0.66,0.18 0.73,0.38 0.2,0.56 0.39,1.14 0.12,1.77 -0.12,0.28 -0.13,0.62 -0.12,0.93 0.03,0.82 0.09,1.65 0.15,2.6 z"
     id="path20"
     style="fill:none;stroke:#782121;stroke-opacity:1" /><path
     class="st0"
     d="m 1000.04,599.89 c 0.72,-2.58 1.72,-5 3.4,-7.18 0.12,0.46 0.27,0.88 0.32,1.3 0.16,1.62 0.38,3.24 0.39,4.87 0,1.21 0.05,2.51 -0.86,3.52 -0.16,0.17 -0.57,0.33 -0.74,0.25 -1,-0.5 -2.08,-0.97 -2.21,-2.32 -0.03,-0.18 -0.23,-0.33 -0.3,-0.44 z"
     id="path28"
     style="fill:none;stroke:#782121;stroke-opacity:1" /></g></g>
</svg>
